<svg width="140" height="31" viewBox="0 0 140 31" fill="none" xmlns="http://www.w3.org/2000/svg">
<path d="M11.625 15.5C9.49375 15.5 7.75 17.2437 7.75 19.375C7.75 21.5063 9.49375 23.25 11.625 23.25C13.7563 23.25 15.5 21.5063 15.5 19.375C15.5 17.2437 13.7563 15.5 11.625 15.5ZM3.875 7.75C1.74375 7.75 0 9.49375 0 11.625C0 13.7563 1.74375 15.5 3.875 15.5C6.00625 15.5 7.75 13.7563 7.75 11.625C7.75 9.49375 6.00625 7.75 3.875 7.75ZM3.875 23.25C1.74375 23.25 0 24.9937 0 27.125C0 29.2563 1.74375 31 3.875 31C6.00625 31 7.75 29.2563 7.75 27.125C7.75 24.9937 6.00625 23.25 3.875 23.25ZM27.125 7.75C29.2563 7.75 31 6.00625 31 3.875C31 1.74375 29.2563 0 27.125 0C24.9937 0 23.25 1.74375 23.25 3.875C23.25 6.00625 24.9937 7.75 27.125 7.75ZM19.375 23.25C17.2437 23.25 15.5 24.9937 15.5 27.125C15.5 29.2563 17.2437 31 19.375 31C21.5063 31 23.25 29.2563 23.25 27.125C23.25 24.9937 21.5063 23.25 19.375 23.25ZM27.125 15.5C24.9937 15.5 23.25 17.2437 23.25 19.375C23.25 21.5063 24.9937 23.25 27.125 23.25C29.2563 23.25 31 21.5063 31 19.375C31 17.2437 29.2563 15.5 27.125 15.5ZM19.375 7.75C17.2437 7.75 15.5 9.49375 15.5 11.625C15.5 13.7563 17.2437 15.5 19.375 15.5C21.5063 15.5 23.25 13.7563 23.25 11.625C23.25 9.49375 21.5063 7.75 19.375 7.75ZM11.625 0C9.49375 0 7.75 1.74375 7.75 3.875C7.75 6.00625 9.49375 7.75 11.625 7.75C13.7563 7.75 15.5 6.00625 15.5 3.875C15.5 1.74375 13.7563 0 11.625 0Z" fill="#1E1E1E"/>
<path d="M49.8535 18.5039C49.8535 18.1133 49.7884 17.765 49.6582 17.459C49.528 17.153 49.3132 16.8796 49.0137 16.6387C48.7207 16.3913 48.3236 16.1634 47.8223 15.9551C47.3275 15.7402 46.709 15.5286 45.9668 15.3203C45.2572 15.1185 44.6159 14.8971 44.043 14.6562C43.4701 14.4154 42.9785 14.1387 42.5684 13.8262C42.1647 13.5137 41.8555 13.1491 41.6406 12.7324C41.4258 12.3092 41.3184 11.8177 41.3184 11.2578C41.3184 10.7109 41.4355 10.2129 41.6699 9.76367C41.9043 9.31445 42.2331 8.92708 42.6562 8.60156C43.0859 8.27604 43.5905 8.02539 44.1699 7.84961C44.7559 7.67383 45.3971 7.58594 46.0938 7.58594C47.0898 7.58594 47.9492 7.77474 48.6719 8.15234C49.401 8.52995 49.9642 9.04102 50.3613 9.68555C50.765 10.3236 50.9668 11.0397 50.9668 11.834H49.7656C49.7656 11.2155 49.6191 10.6654 49.3262 10.1836C49.0397 9.69531 48.623 9.31445 48.0762 9.04102C47.5358 8.76107 46.875 8.62109 46.0938 8.62109C45.3125 8.62109 44.6549 8.74154 44.1211 8.98242C43.5938 9.2168 43.1934 9.53255 42.9199 9.92969C42.653 10.3203 42.5195 10.7565 42.5195 11.2383C42.5195 11.5768 42.5846 11.8893 42.7148 12.1758C42.8451 12.4557 43.0566 12.7194 43.3496 12.9668C43.6491 13.2077 44.043 13.4355 44.5312 13.6504C45.0195 13.8587 45.6217 14.0573 46.3379 14.2461C47.0931 14.4544 47.7637 14.6855 48.3496 14.9395C48.9355 15.1934 49.4303 15.4863 49.834 15.8184C50.2376 16.1439 50.5436 16.5247 50.752 16.9609C50.9603 17.3971 51.0645 17.9049 51.0645 18.4844C51.0645 19.0638 50.9408 19.5846 50.6934 20.0469C50.4525 20.5026 50.1107 20.89 49.668 21.209C49.2318 21.528 48.7142 21.7721 48.1152 21.9414C47.5228 22.1107 46.875 22.1953 46.1719 22.1953C45.5404 22.1953 44.9121 22.1139 44.2871 21.9512C43.6621 21.7884 43.0892 21.5378 42.5684 21.1992C42.054 20.8542 41.6406 20.4115 41.3281 19.8711C41.0221 19.3307 40.8691 18.6862 40.8691 17.9375H42.0605C42.0605 18.5365 42.181 19.041 42.4219 19.4512C42.6628 19.8613 42.9818 20.1934 43.3789 20.4473C43.7826 20.7012 44.2253 20.8867 44.707 21.0039C45.1953 21.1146 45.6836 21.1699 46.1719 21.1699C46.9206 21.1699 47.5684 21.0592 48.1152 20.8379C48.6686 20.6165 49.0951 20.3073 49.3945 19.9102C49.7005 19.5065 49.8535 19.0378 49.8535 18.5039ZM58.4277 7.78125V22H57.2363V7.78125H58.4277ZM63.3008 7.78125V8.81641H52.373V7.78125H63.3008ZM69.502 22H66.2793L66.2988 20.9746H69.502C70.5241 20.9746 71.403 20.7467 72.1387 20.291C72.8809 19.8288 73.4538 19.1908 73.8574 18.377C74.2611 17.5632 74.4629 16.6191 74.4629 15.5449V14.2168C74.4629 13.3965 74.3457 12.6543 74.1113 11.9902C73.8835 11.3262 73.5547 10.7598 73.125 10.291C72.6953 9.81576 72.181 9.45117 71.582 9.19727C70.9896 8.94336 70.3255 8.81641 69.5898 8.81641H66.2207V7.78125H69.5898C70.4753 7.78125 71.2858 7.93424 72.0215 8.24023C72.7637 8.53971 73.4049 8.97591 73.9453 9.54883C74.4922 10.1152 74.9121 10.7956 75.2051 11.5898C75.5046 12.3841 75.6543 13.2695 75.6543 14.2461V15.5449C75.6543 16.5215 75.5046 17.4069 75.2051 18.2012C74.9121 18.9954 74.4922 19.6758 73.9453 20.2422C73.3984 20.8086 72.7507 21.2448 72.002 21.5508C71.2533 21.8503 70.4199 22 69.502 22ZM66.8164 7.78125V22H65.6152V7.78125H66.8164ZM79.9219 7.78125V22H78.7207V7.78125H79.9219ZM86.543 14.3242V15.3594H79.5215V14.3242H86.543ZM87.5293 7.78125V8.81641H79.5215V7.78125H87.5293ZM100.908 19.3047C100.908 19.0182 100.837 18.735 100.693 18.4551C100.55 18.1751 100.273 17.918 99.8633 17.6836C99.4596 17.4492 98.8639 17.2507 98.0762 17.0879C97.4902 16.9577 96.9661 16.8112 96.5039 16.6484C96.0482 16.4857 95.6641 16.2904 95.3516 16.0625C95.0391 15.8346 94.8014 15.5612 94.6387 15.2422C94.4759 14.9232 94.3945 14.5456 94.3945 14.1094C94.3945 13.7188 94.4792 13.3509 94.6484 13.0059C94.8242 12.6543 95.0716 12.3483 95.3906 12.0879C95.7161 11.821 96.1068 11.6126 96.5625 11.4629C97.0247 11.3132 97.5423 11.2383 98.1152 11.2383C98.929 11.2383 99.6257 11.3783 100.205 11.6582C100.791 11.9316 101.237 12.306 101.543 12.7812C101.855 13.2565 102.012 13.7936 102.012 14.3926H100.85C100.85 14.028 100.742 13.6829 100.527 13.3574C100.319 13.0319 100.01 12.765 99.5996 12.5566C99.196 12.3483 98.7012 12.2441 98.1152 12.2441C97.5098 12.2441 97.0182 12.3353 96.6406 12.5176C96.263 12.6999 95.9863 12.931 95.8105 13.2109C95.6413 13.4909 95.5566 13.7806 95.5566 14.0801C95.5566 14.3145 95.5924 14.5293 95.6641 14.7246C95.7422 14.9134 95.8789 15.0892 96.0742 15.252C96.276 15.4147 96.5625 15.5677 96.9336 15.7109C97.3047 15.8542 97.7865 15.9941 98.3789 16.1309C99.2318 16.3197 99.9284 16.5508 100.469 16.8242C101.016 17.0911 101.419 17.4232 101.68 17.8203C101.94 18.2109 102.07 18.6862 102.07 19.2461C102.07 19.6823 101.979 20.0827 101.797 20.4473C101.615 20.8053 101.351 21.1146 101.006 21.375C100.667 21.6354 100.257 21.8372 99.7754 21.9805C99.3001 22.1237 98.7663 22.1953 98.1738 22.1953C97.2819 22.1953 96.5267 22.0488 95.9082 21.7559C95.2962 21.4564 94.8307 21.0658 94.5117 20.584C94.1992 20.0957 94.043 19.5781 94.043 19.0312H95.2051C95.2441 19.5781 95.4167 20.0111 95.7227 20.3301C96.0286 20.6426 96.403 20.8639 96.8457 20.9941C97.2949 21.1243 97.7376 21.1895 98.1738 21.1895C98.7728 21.1895 99.2741 21.1016 99.6777 20.9258C100.081 20.75 100.387 20.5189 100.596 20.2324C100.804 19.946 100.908 19.6367 100.908 19.3047ZM108.711 11.4336V12.3906H103.418V11.4336H108.711ZM105.361 8.71875H106.523V19.4316C106.523 19.9199 106.589 20.2878 106.719 20.5352C106.849 20.7826 107.018 20.9486 107.227 21.0332C107.435 21.1178 107.66 21.1602 107.9 21.1602C108.076 21.1602 108.245 21.1504 108.408 21.1309C108.571 21.1048 108.717 21.0788 108.848 21.0527L108.896 22.0391C108.753 22.0846 108.568 22.1204 108.34 22.1465C108.112 22.179 107.884 22.1953 107.656 22.1953C107.207 22.1953 106.81 22.1139 106.465 21.9512C106.12 21.7819 105.85 21.4954 105.654 21.0918C105.459 20.6816 105.361 20.125 105.361 19.4219V8.71875ZM110.322 16.8828V16.5605C110.322 15.7923 110.433 15.0827 110.654 14.4316C110.876 13.7806 111.191 13.2174 111.602 12.7422C112.018 12.2669 112.516 11.8991 113.096 11.6387C113.675 11.3717 114.32 11.2383 115.029 11.2383C115.745 11.2383 116.393 11.3717 116.973 11.6387C117.552 11.8991 118.05 12.2669 118.467 12.7422C118.883 13.2174 119.202 13.7806 119.424 14.4316C119.645 15.0827 119.756 15.7923 119.756 16.5605V16.8828C119.756 17.651 119.645 18.3607 119.424 19.0117C119.202 19.6562 118.883 20.2161 118.467 20.6914C118.057 21.1667 117.562 21.5378 116.982 21.8047C116.403 22.0651 115.758 22.1953 115.049 22.1953C114.333 22.1953 113.685 22.0651 113.105 21.8047C112.526 21.5378 112.028 21.1667 111.611 20.6914C111.195 20.2161 110.876 19.6562 110.654 19.0117C110.433 18.3607 110.322 17.651 110.322 16.8828ZM111.484 16.5605V16.8828C111.484 17.4622 111.562 18.0124 111.719 18.5332C111.875 19.0475 112.103 19.5065 112.402 19.9102C112.702 20.3073 113.073 20.6198 113.516 20.8477C113.958 21.0755 114.469 21.1895 115.049 21.1895C115.622 21.1895 116.126 21.0755 116.562 20.8477C117.005 20.6198 117.376 20.3073 117.676 19.9102C117.975 19.5065 118.2 19.0475 118.35 18.5332C118.506 18.0124 118.584 17.4622 118.584 16.8828V16.5605C118.584 15.9876 118.506 15.444 118.35 14.9297C118.2 14.4154 117.972 13.9564 117.666 13.5527C117.367 13.1491 116.995 12.8301 116.553 12.5957C116.11 12.3613 115.602 12.2441 115.029 12.2441C114.456 12.2441 113.949 12.3613 113.506 12.5957C113.07 12.8301 112.699 13.1491 112.393 13.5527C112.093 13.9564 111.865 14.4154 111.709 14.9297C111.559 15.444 111.484 15.9876 111.484 16.5605ZM123.34 13.1816V22H122.178V11.4336H123.311L123.34 13.1816ZM127.08 11.3555L127.051 12.4297C126.921 12.4102 126.794 12.3939 126.67 12.3809C126.546 12.3678 126.413 12.3613 126.27 12.3613C125.762 12.3613 125.316 12.4557 124.932 12.6445C124.554 12.8268 124.235 13.084 123.975 13.416C123.714 13.7415 123.516 14.1257 123.379 14.5684C123.242 15.0046 123.164 15.4733 123.145 15.9746L122.715 16.1406C122.715 15.4505 122.786 14.8092 122.93 14.2168C123.073 13.6243 123.291 13.1068 123.584 12.6641C123.883 12.2148 124.258 11.8665 124.707 11.6191C125.163 11.3652 125.697 11.2383 126.309 11.2383C126.458 11.2383 126.605 11.2513 126.748 11.2773C126.898 11.2969 127.008 11.3229 127.08 11.3555ZM132.803 22.1953C132.113 22.1953 131.478 22.0684 130.898 21.8145C130.326 21.5605 129.824 21.2025 129.395 20.7402C128.971 20.278 128.643 19.7311 128.408 19.0996C128.18 18.4616 128.066 17.765 128.066 17.0098V16.5898C128.066 15.776 128.187 15.0404 128.428 14.3828C128.669 13.7253 129.001 13.1621 129.424 12.6934C129.847 12.2246 130.329 11.8665 130.869 11.6191C131.416 11.3652 131.989 11.2383 132.588 11.2383C133.258 11.2383 133.854 11.3587 134.375 11.5996C134.896 11.834 135.332 12.1693 135.684 12.6055C136.042 13.0352 136.312 13.5462 136.494 14.1387C136.676 14.7246 136.768 15.3724 136.768 16.082V16.7949H128.77V15.7988H135.605V15.6621C135.592 15.0697 135.472 14.5163 135.244 14.002C135.023 13.4811 134.691 13.0579 134.248 12.7324C133.805 12.4069 133.252 12.2441 132.588 12.2441C132.093 12.2441 131.637 12.3483 131.221 12.5566C130.811 12.765 130.456 13.0645 130.156 13.4551C129.863 13.8392 129.635 14.2982 129.473 14.832C129.316 15.3594 129.238 15.9453 129.238 16.5898V17.0098C129.238 17.5957 129.323 18.1426 129.492 18.6504C129.668 19.1517 129.915 19.5944 130.234 19.9785C130.56 20.3626 130.944 20.6621 131.387 20.877C131.829 21.0918 132.318 21.1992 132.852 21.1992C133.477 21.1992 134.03 21.0853 134.512 20.8574C134.993 20.623 135.426 20.2552 135.811 19.7539L136.543 20.3203C136.315 20.6589 136.029 20.9714 135.684 21.2578C135.345 21.5443 134.938 21.7721 134.463 21.9414C133.988 22.1107 133.434 22.1953 132.803 22.1953Z" fill="#111111"/>
</svg>
